<svg width="20" height="18" viewBox="0 0 20 18" fill="none" xmlns="http://www.w3.org/2000/svg">
<path d="M13.3334 16.5V3.16667C13.3334 2.72464 13.1578 2.30072 12.8453 1.98816C12.5327 1.67559 12.1088 1.5 11.6667 1.5H8.33342C7.89139 1.5 7.46746 1.67559 7.1549 1.98816C6.84234 2.30072 6.66675 2.72464 6.66675 3.16667V16.5M3.33341 4.83333H16.6667C17.5872 4.83333 18.3334 5.57953 18.3334 6.5V14.8333C18.3334 15.7538 17.5872 16.5 16.6667 16.5H3.33341C2.41294 16.5 1.66675 15.7538 1.66675 14.8333V6.5C1.66675 5.57953 2.41294 4.83333 3.33341 4.83333Z" stroke="#B3B3B3" stroke-width="2" stroke-linecap="round" stroke-linejoin="round"/>
</svg>
