<svg width="28" height="30" viewBox="0 0 28 30" fill="none" xmlns="http://www.w3.org/2000/svg">
<path d="M2 7.00008L6 1.66675H22L26 7.00008M2 7.00008V25.6667C2 26.374 2.28095 27.0523 2.78105 27.5524C3.28115 28.0525 3.95942 28.3334 4.66667 28.3334H23.3333C24.0406 28.3334 24.7189 28.0525 25.219 27.5524C25.719 27.0523 26 26.374 26 25.6667V7.00008M2 7.00008H26M19.3333 12.3334C19.3333 13.7479 18.7714 15.1045 17.7712 16.1047C16.771 17.1048 15.4145 17.6667 14 17.6667C12.5855 17.6667 11.229 17.1048 10.2288 16.1047C9.22857 15.1045 8.66667 13.7479 8.66667 12.3334" stroke="#DC306B" stroke-width="3" stroke-linecap="round" stroke-linejoin="round"/>
</svg>
